<?xml version="1.0" encoding="UTF-8" standalone="no"?>
<svg width="64px" height="35px" viewBox="0 0 64 35" version="1.1" xmlns="http://www.w3.org/2000/svg" xmlns:xlink="http://www.w3.org/1999/xlink">
    <!-- Generator: Sketch 3.8.3 (29802) - http://www.bohemiancoding.com/sketch -->
    <title>logo_cisco</title>
    <desc>Created with Sketch.</desc>
    <defs></defs>
    <g id="Symbols" stroke="none" stroke-width="1" fill="none" fill-rule="evenodd">
        <g id="logo_cisco" fill="#049FD9">
            <g>
                <path d="M46.1056859,28.5938535 C46.132607,30.3845924 46.9420046,32.0678483 48.3099277,33.1783044 C49.6777333,34.2886398 51.4589958,34.7083065 53.1612583,34.321247 C55.4725969,33.8741661 57.273727,32.0052908 57.6860084,29.6265355 C58.0982898,27.2480217 57.0356689,24.8552574 55.0165834,23.616184 C53.233675,22.482782 50.9962814,22.4182922 49.1543581,23.4472304 C47.3123173,24.4761686 46.1487127,26.4403294 46.1056859,28.5938535 M50.1422111,26.2699266 C50.7431756,25.7769541 51.5102518,25.5495491 52.2745065,25.637347 C53.0387613,25.7253865 53.7376529,26.1216243 54.2176486,26.7389872 C54.6975267,27.3562293 54.9190089,28.1442365 54.8334256,28.9293453 C54.7477247,29.7144541 54.3620117,30.432537 53.7610472,30.9255095 C53.1600827,31.418482 52.3931241,31.6460078 51.6288694,31.5579683 C50.8646147,31.4701705 50.1656055,31.0739326 49.6857273,30.456449 C49.2057316,29.8392068 48.984367,29.0513204 49.0699503,28.2662116 C49.1555337,27.4811028 49.5412466,26.7628991 50.1422111,26.2699266" id="Fill-14"></path>
                <path d="M43.1758664,34.0536265 L43.1758664,31.0333548 L43.1181447,31.059199 C42.4554614,31.3887732 41.7344686,31.5769288 40.9988984,31.6118306 C40.2347612,31.6733012 39.4753264,31.4432393 38.8657801,30.9659666 C38.4303394,30.6206926 38.1065804,30.1483714 37.9369419,29.6108357 C37.7496696,29.0252346 37.7280386,28.3970027 37.8744003,27.7992041 C38.0102991,27.1877588 38.343698,26.6416486 38.8202845,26.2496377 C39.2425585,25.8866109 39.7589977,25.6577567 40.3058847,25.5912139 C41.2731649,25.4811948 42.2502024,25.6697127 43.1127369,26.1324933 L43.1758664,26.1659459 L43.1758664,23.1284045 L43.0416134,23.0914497 C42.1781384,22.8068009 41.2717541,22.6848259 40.3660752,22.7316836 C39.5410422,22.753301 38.7284705,22.9441135 37.9765595,23.2928897 C37.2173598,23.6503612 36.5482108,24.1817377 36.0201332,24.8461999 C34.3699496,26.9911495 34.3259823,30.006832 35.9129189,32.2015378 C36.6939847,33.2279398 37.7904627,33.9521819 39.0236626,34.2562742 C40.3235187,34.5808969 41.6853287,34.5317446 42.9599095,34.114614 L43.1758664,34.0536265" id="Fill-13"></path>
                <path d="M24.5047036,31.5468577 L24.4941232,34.1481873 L24.6792795,34.1807945 C25.2603765,34.2922628 25.8469987,34.3697955 26.4366775,34.4129095 C26.9531166,34.4620618 27.4721421,34.4724478 27.9901096,34.4440674 C28.4849178,34.4073542 28.9740831,34.3125518 29.4478482,34.1615925 C30.0039049,33.999885 30.5195212,33.7174101 30.9598993,33.3333698 C31.3566628,32.9855597 31.659849,32.5389619 31.8407731,32.036328 C32.1560679,31.1950623 32.1498372,30.2620135 31.8231392,29.4250955 C31.651032,28.9910575 31.3804099,28.605568 31.0331389,28.3013549 C30.6977415,27.9906204 30.3035643,27.7547617 29.8749421,27.6082708 L27.9654221,26.8804058 C27.7371214,26.7808934 27.5516124,26.5995008 27.4436927,26.3701636 C27.3596376,26.1791095 27.3675141,25.9588298 27.4650886,25.7749011 C27.4991808,25.7102905 27.5420901,25.650873 27.5924056,25.5987015 C27.6509502,25.5378347 27.7165485,25.4844555 27.7875544,25.4397716 C27.8158863,25.421898 27.8448059,25.4051113 27.8741958,25.3895323 C28.0878016,25.2810832 28.3182183,25.2122458 28.5549833,25.1860393 C28.9592706,25.1261387 29.3701413,25.1304863 29.7731355,25.1992029 C30.2491342,25.2522198 30.7210183,25.33881 31.185261,25.4588528 L31.2838935,25.4813156 L31.2838935,23.081426 L31.101441,23.0412104 C30.6281462,22.9247907 30.1486208,22.8371135 29.6652158,22.7784206 C29.0386233,22.692555 28.4039192,22.6897773 27.7766214,22.7702084 C26.9820363,22.8449634 26.2261283,23.1571471 25.6023572,23.6683555 C25.1794955,24.0094026 24.8578525,24.4649372 24.6736367,24.9836331 C24.3963137,25.7736934 24.3954907,26.6382672 24.671403,27.4289313 C24.8141204,27.8217876 25.042421,28.1759983 25.3392589,28.4639078 C25.5964793,28.7188478 25.8874392,28.9353837 26.2033217,29.1072357 C26.6194826,29.3369353 27.0604485,29.5148256 27.5174026,29.6372838 C27.6682315,29.6836584 27.8182375,29.73269 27.9674206,29.7842577 L28.1936052,29.8695195 C28.2153537,29.8783355 28.2367495,29.8872723 28.2583805,29.8965714 C28.4812734,29.9784516 28.6852393,30.1076728 28.8565236,30.2756602 C28.9754938,30.3901477 29.0671903,30.531204 29.1243243,30.6878393 C29.1597097,30.8311902 29.1601799,30.9811833 29.1259701,31.1247757 C29.0543763,31.356166 28.8973167,31.5495146 28.6887661,31.6632775 C28.4614059,31.7846487 28.2147659,31.8639929 27.9604846,31.8970832 C27.5872329,31.9579499 27.2085736,31.977635 26.8313249,31.9555346 C26.336987,31.9173721 25.8452353,31.8499839 25.3583036,31.7536115 C25.1036696,31.6999908 24.8504463,31.639124 24.5991039,31.571132 L24.5047036,31.5468577" id="Fill-1"></path>
                <polygon id="Fill-3" points="17.9546373 22.9245491 20.7350386 22.9245491 20.7350386 34.2533757 17.9546373 34.2533757"></polygon>
                <path d="M14.1225481,34.0536265 L14.1225481,31.0333548 L14.0649439,31.059199 C13.4021431,31.3887732 12.6811503,31.5769288 11.9455801,31.6118306 C11.1813254,31.6733012 10.4218906,31.4432393 9.81234423,30.9658458 C9.3769036,30.6206926 9.05326212,30.1483714 8.88350611,29.6108357 C8.69635128,29.0252346 8.67460276,28.3970027 8.82108198,27.7992041 C8.95698084,27.1877588 9.29037976,26.6416486 9.76684868,26.2496377 C10.1893578,25.8866109 10.7055618,25.6577567 11.2525665,25.5912139 C12.219729,25.4811948 13.1967666,25.6697127 14.0591835,26.1324933 L14.1225481,26.1659459 L14.1225481,23.1284045 L13.9881776,23.0914497 C13.1249377,22.8068009 12.2184359,22.6848259 11.312757,22.7316836 C10.4877239,22.753301 9.67526978,22.9441135 8.92312368,23.2930104 C8.16392401,23.6503612 7.4946574,24.1816169 6.96681496,24.8461999 C5.31651378,26.9911495 5.2725465,30.006832 6.85948307,32.2015378 C7.64043127,33.2279398 8.73702689,33.9521819 9.97022673,34.2562742 C11.2700828,34.5808969 12.6318928,34.5317446 13.9064737,34.114614 L14.1225481,34.0536265" id="Fill-2"></path>
                <path d="M60.7320943,13.8202579 C60.7579574,14.1770047 60.913959,14.5099604 61.1690632,14.7533067 C61.4240499,14.9965323 61.7590947,15.131671 62.107071,15.131671 C62.4550473,15.131671 62.7900921,14.9965323 63.0451963,14.7533067 C63.300183,14.5099604 63.4563021,14.1770047 63.4821652,13.8202579 L63.4821652,10.6805472 C63.4681757,10.3155882 63.3171116,9.97043499 63.0608318,9.71718577 C62.8044343,9.46405732 62.4626887,9.32263871 62.107071,9.32263871 C61.7514533,9.32263871 61.4097077,9.46405732 61.1534278,9.71718577 C60.8970304,9.97043499 60.7460839,10.3155882 60.7320943,10.6805472 L60.7320943,13.8202579" id="Fill-12"></path>
                <path d="M53.1511482,13.8202579 C53.1770113,14.1770047 53.3330129,14.5099604 53.5881171,14.7533067 C53.8431038,14.9965323 54.1781486,15.131671 54.5261249,15.131671 C54.8741012,15.131671 55.209146,14.9965323 55.4642502,14.7533067 C55.7192369,14.5099604 55.875356,14.1770047 55.9012191,13.8202579 L55.9012191,6.78157205 C55.887112,6.41673376 55.7361655,6.07133902 55.4798856,5.81821057 C55.2234882,5.56508212 54.8817426,5.42366351 54.5261249,5.42366351 C54.1705072,5.42366351 53.8287615,5.56508212 53.5724817,5.81821057 C53.3160843,6.07133902 53.1651378,6.41673376 53.1511482,6.78157205 L53.1511482,13.8202579" id="Fill-11"></path>
                <path d="M45.5519803,16.6552724 C45.5778435,17.0116569 45.733845,17.3449749 45.9889493,17.5880797 C46.2439359,17.8313052 46.5789807,17.9664439 46.926957,17.9664439 C47.2749333,17.9664439 47.6099781,17.8313052 47.8650824,17.5880797 C48.1200691,17.3449749 48.2761882,17.0116569 48.3020513,16.6552724 L48.3020513,1.4298859 C48.2880617,1.06468531 48.1369976,0.719532113 47.8807178,0.466282895 C47.6243204,0.213275212 47.2825747,0.07173583 46.926957,0.07173583 C46.5713393,0.07173583 46.2295937,0.213275212 45.9730787,0.466282895 C45.7169164,0.719532113 45.5659699,1.06468531 45.5519803,1.4298859 L45.5519803,16.6552724" id="Fill-10"></path>
                <path d="M37.9777351,13.8202579 C38.0035982,14.1770047 38.1597173,14.5099604 38.414704,14.7533067 C38.6695732,14.9965323 39.004853,15.131671 39.3528294,15.131671 C39.7006881,15.131671 40.0358504,14.9965323 40.2908371,14.7533067 C40.5458238,14.5099604 40.7019429,14.1770047 40.727806,13.8202579 L40.727806,6.78157205 C40.7138164,6.41673376 40.56287,6.07133902 40.3064725,5.81821057 C40.0501927,5.56508212 39.7083295,5.42366351 39.3528294,5.42366351 C38.9972117,5.42366351 38.6553485,5.56508212 38.3990686,5.81821057 C38.1426712,6.07133902 37.9917247,6.41673376 37.9777351,6.78157205 L37.9777351,13.8202579" id="Fill-9"></path>
                <path d="M30.3723366,13.8202579 C30.3983173,14.1770047 30.5544364,14.5099604 30.8094231,14.7533067 C31.0645273,14.9965323 31.3995721,15.131671 31.7475484,15.131671 C32.0955247,15.131671 32.4305695,14.9965323 32.6855562,14.7533067 C32.9406604,14.5099604 33.096662,14.1770047 33.1225251,13.8202579 L33.1225251,10.6805472 C33.1085355,10.3155882 32.957589,9.97043499 32.7011916,9.71718577 C32.4449117,9.46405732 32.1031661,9.32263871 31.7475484,9.32263871 C31.3918132,9.32263871 31.0501851,9.46405732 30.7936701,9.71718577 C30.5375078,9.97043499 30.3864438,10.3155882 30.3723366,10.6805472 L30.3723366,13.8202579" id="Fill-8"></path>
                <path d="M22.7950348,13.8202579 C22.8208979,14.1770047 22.9768995,14.5099604 23.2320037,14.7533067 C23.4869904,14.9965323 23.8221527,15.131671 24.1700115,15.131671 C24.5181054,15.131671 24.8530326,14.9965323 25.1081368,14.7533067 C25.3631235,14.5099604 25.5192426,14.1770047 25.5451057,13.8202579 L25.5451057,6.78157205 C25.5311161,6.41673376 25.3800521,6.07133902 25.1237723,5.81821057 C24.8672573,5.56508212 24.5256292,5.42366351 24.1700115,5.42366351 C23.8143938,5.42366351 23.4726482,5.56508212 23.2163683,5.81821057 C22.9599709,6.07133902 22.809142,6.41673376 22.7950348,6.78157205 L22.7950348,13.8202579" id="Fill-7"></path>
                <path d="M15.1838759,16.6552724 C15.209739,17.0116569 15.3657405,17.3449749 15.6208448,17.5880797 C15.8758315,17.8313052 16.2108763,17.9664439 16.5588526,17.9664439 C16.9068289,17.9664439 17.2418736,17.8313052 17.4969779,17.5880797 C17.7519646,17.3449749 17.9080837,17.0116569 17.9339468,16.6552724 L17.9339468,1.4298859 C17.9200748,1.06468531 17.7688932,0.719532113 17.5126133,0.466282895 C17.2562159,0.213275212 16.9144703,0.07173583 16.5588526,0.07173583 C16.2032349,0.07173583 15.8614892,0.213275212 15.6052094,0.466282895 C15.348812,0.719532113 15.1977479,1.06468531 15.1838759,1.4298859 L15.1838759,16.6552724" id="Fill-6"></path>
                <path d="M7.61221697,13.8202579 C7.63819763,14.1770047 7.79431674,14.5099604 8.04918587,14.7533067 C8.30429013,14.9965323 8.63921733,15.131671 8.9873112,15.131671 C9.33516996,15.131671 9.67033228,14.9965323 9.92531898,14.7533067 C10.1804232,14.5099604 10.3365423,14.1770047 10.3622879,13.8202579 L10.3622879,6.78157205 C10.3482983,6.41673376 10.1973518,6.07133902 9.9409544,5.81821057 C9.68467455,5.56508212 9.34292889,5.42366351 8.9873112,5.42366351 C8.63169352,5.42366351 8.28994786,5.56508212 8.03355045,5.81821057 C7.7772706,6.07133902 7.62620656,6.41673376 7.61221697,6.78157205 L7.61221697,13.8202579" id="Fill-5"></path>
                <path d="M0,13.8202579 C0.0259806639,14.1770047 0.181982207,14.5099604 0.436968904,14.7533067 C0.692073161,14.9965323 1.02700036,15.131671 1.37509423,15.131671 C1.72295299,15.131671 2.05811531,14.9965323 2.31310201,14.7533067 C2.56820626,14.5099604 2.72432537,14.1770047 2.75007091,13.8202579 L2.75007091,10.6805472 C2.73608132,10.3155882 2.58513484,9.97043499 2.32873743,9.71718577 C2.07245758,9.46405732 1.73071192,9.32263871 1.37509423,9.32263871 C1.01947655,9.32263871 0.677730894,9.46405732 0.421333482,9.71718577 C0.16493607,9.97043499 0.0139895883,10.3155882 0,10.6805472 L0,13.8202579" id="Fill-4"></path>
            </g>
        </g>
    </g>
</svg>