<?xml version="1.0" encoding="utf-8"?>
<!-- Generator: Adobe Illustrator 26.0.2, SVG Export Plug-In . SVG Version: 6.00 Build 0)  -->
<svg version="1.1" id="Layer_1" xmlns="http://www.w3.org/2000/svg" xmlns:xlink="http://www.w3.org/1999/xlink" x="0px" y="0px"
	 viewBox="0 0 566.9 170.1" style="enable-background:new 0 0 566.9 170.1;" xml:space="preserve">
<style type="text/css">
	.st0{fill:none;stroke:#5F249F;stroke-miterlimit:10;}
	.st1{fill:#5F249F;}
</style>
<line class="st0" x1="335.2" y1="3.3" x2="335.2" y2="110.2"/>
<path class="st1" d="M89.8,79.5L89.8,79.5V34.3H103v62H92l-1.7-6.9c-3.9,6.2-11.4,7.8-15.6,7.8c-15.7,0-28-10.9-28-27.9v-35H60v35
	C60.1,84.9,79.6,91.1,89.8,79.5 M201.1,33.1c18.6,0,32.2,14.1,32.2,32.2c0,18-13.6,32.3-32.2,32.3c-18.5,0-32.4-14.3-32.4-32.3
	C168.7,47.3,182.6,33.1,201.1,33.1 M201.1,85.7c9.4,0,18.9-6.6,18.9-20.3s-9.5-20.1-18.9-20.1c-9.1,0-19,6.4-19,20.1
	S192,85.7,201.1,85.7 M290.8,76.7V45.5h11.6V34.3h-11.6V17.1L278,18.5v15.8h-21.7v-4.6c0-4.4,2.6-8,8.2-8.2c1.4-0.1,2.9,0.1,4.7,0.5
	V10.7c-2-0.4-4-0.5-5.8-0.5c-12.6-0.1-20.3,7.1-20.3,19.5v4.6h-8.8h-0.1v11.2h8.8v50.8h13.2V45.5H278v31.6
	c0,14.9,10.3,20.8,24.6,19.3V84.8C293.8,86.4,290.8,81.7,290.8,76.7 M124.8,34.3L124.8,34.3h-15.4l20.7,31l-21,31.1h14.2l21-31.1
	L124.8,34.3z M169.2,34.3h-14.4l-8.1,12.3l6.9,11L169.2,34.3z M153.6,72.8l-7.2,10.6l8.6,13h14.5L153.6,72.8z M25.5,84.2
	c-3.1,0-5.7-2.6-5.7-5.7v-60L6.4,17.1v62.8c0,9.1,7.3,16.5,16.4,16.5h19.7V84.2H25.5z"/>
<path d="M26.5,154.1l-2.9-8.1H12.4l-2.9,8.1h-5l10.9-29.3h5.2l10.9,29.3H26.5z M22.3,141.9l-2.7-7.9c-0.2-0.5-0.5-1.4-0.8-2.5
	s-0.6-2-0.7-2.5c-0.4,1.6-0.9,3.4-1.6,5.4l-2.6,7.6h8.4V141.9z M69.8,139.2c0,4.8-1.3,8.5-4,11.1c-2.7,2.5-6.5,3.8-11.6,3.8H46
	v-29.2h9c4.7,0,8.3,1.2,10.8,3.8C68.5,131.2,69.8,134.7,69.8,139.2 M64.7,139.4c0-7-3.3-10.5-9.8-10.5h-4.1v21.2h3.4
	C61.2,150.1,64.7,146.5,64.7,139.4 M97.5,154.1H92l-7.3-11.9l-7.4,11.9h-5.1l9.7-15.1l-9.1-14.1h5.3l6.7,11l6.8-11h5.2L87.7,139
	L97.5,154.1z M113.9,128.6c-2.7,0-4.9,1-6.5,2.9s-2.4,4.6-2.4,8c0,3.6,0.8,6.3,2.3,8.1s3.7,2.8,6.6,2.8c1.2,0,2.4-0.1,3.6-0.4
	c1.2-0.2,2.4-0.6,3.6-0.9v4.1c-2.3,0.9-4.9,1.3-7.8,1.3c-4.3,0-7.6-1.3-9.8-3.9c-2.3-2.6-3.4-6.3-3.4-11.1c0-3,0.6-5.7,1.7-8
	s2.7-4,4.8-5.2c2.1-1.2,4.6-1.8,7.4-1.8c3,0,5.7,0.6,8.3,1.9l-1.7,4c-1-0.5-2-0.9-3.1-1.2C116.3,128.7,115.1,128.6,113.9,128.6
	 M148.1,154.1h-4.8V129h-8.6v-4.1h21.9v4.1H148v25.1H148.1z M170.3,154.5c-3.4,0-6.1-1-8.1-3c-1.9-2-2.9-4.8-2.9-8.3
	c0-3.6,0.9-6.4,2.7-8.5s4.3-3.1,7.4-3.1c2.9,0,5.2,0.9,6.9,2.7s2.5,4.2,2.5,7.3v2.5h-14.7c0.1,2.1,0.7,3.8,1.7,4.9
	c1.1,1.1,2.6,1.7,4.6,1.7c1.3,0,2.5-0.1,3.6-0.4c1.1-0.2,2.3-0.7,3.6-1.2v3.8c-1.1,0.5-2.3,0.9-3.5,1.2
	C173.2,154.4,171.8,154.5,170.3,154.5 M169.5,135.2c-1.5,0-2.7,0.5-3.6,1.4c-0.9,0.9-1.4,2.3-1.6,4.1h10c0-1.8-0.5-3.2-1.3-4.1
	C172.1,135.6,171,135.2,169.5,135.2 M193.2,154.5c-3.3,0-5.9-1-7.6-2.9c-1.7-2-2.6-4.7-2.6-8.4s0.9-6.6,2.7-8.6s4.4-3,7.9-3
	c2.3,0,4.4,0.4,6.3,1.3l-1.4,3.8c-2-0.8-3.6-1.2-4.9-1.2c-3.8,0-5.7,2.5-5.7,7.6c0,2.5,0.5,4.3,1.4,5.6c0.9,1.2,2.3,1.9,4.2,1.9
	c2.1,0,4.1-0.5,5.9-1.6v4.1c-0.8,0.5-1.7,0.8-2.7,1.1C195.7,154.4,194.5,154.5,193.2,154.5 M223.9,154.1h-4.7v-13.6
	c0-1.7-0.3-3-1-3.8s-1.8-1.3-3.3-1.3c-2,0-3.4,0.6-4.3,1.8c-0.9,1.2-1.4,3.2-1.4,5.9v11h-4.7V123h4.7v7.9c0,1.3-0.1,2.6-0.2,4.1h0.3
	c0.6-1.1,1.5-1.9,2.7-2.5c1.1-0.6,2.5-0.9,4-0.9c5.4,0,8,2.7,8,8.1v14.4H223.9z M249.9,154.1h-4.7v-13.6c0-1.7-0.3-3-1-3.8
	s-1.8-1.3-3.3-1.3c-2,0-3.4,0.6-4.4,1.8c-0.9,1.2-1.4,3.1-1.4,5.9v11h-4.7V132h3.7l0.7,2.9h0.2c0.7-1,1.6-1.9,2.8-2.4
	c1.2-0.6,2.6-0.9,4.1-0.9c5.3,0,7.9,2.7,7.9,8.1L249.9,154.1L249.9,154.1z M276,143c0,3.6-0.9,6.4-2.8,8.5c-1.8,2-4.4,3-7.7,3
	c-2.1,0-3.9-0.5-5.5-1.4s-2.8-2.3-3.7-4c-0.8-1.7-1.3-3.8-1.3-6.1c0-3.6,0.9-6.4,2.8-8.4c1.8-2,4.4-3,7.8-3c3.2,0,5.7,1,7.6,3.1
	C275.1,136.7,276,139.5,276,143 M259.9,143c0,5.1,1.9,7.7,5.7,7.7c3.7,0,5.6-2.6,5.6-7.7c0-5-1.9-7.6-5.6-7.6c-2,0-3.4,0.7-4.3,2
	C260.4,138.7,259.9,140.6,259.9,143 M286.1,154.1h-4.7V123h4.7V154.1z M312.4,143c0,3.6-0.9,6.4-2.8,8.5c-1.9,2-4.4,3-7.7,3
	c-2.1,0-3.9-0.5-5.5-1.4s-2.8-2.3-3.7-4c-0.8-1.7-1.3-3.8-1.3-6.1c0-3.6,0.9-6.4,2.8-8.4c1.8-2,4.4-3,7.8-3c3.2,0,5.7,1,7.6,3.1
	C311.5,136.7,312.4,139.5,312.4,143 M296.3,143c0,5.1,1.9,7.7,5.6,7.7s5.6-2.6,5.6-7.7c0-5-1.9-7.6-5.6-7.6c-2,0-3.4,0.7-4.3,2
	C296.8,138.7,296.3,140.6,296.3,143 M336.5,132v2.6l-3.8,0.7c0.3,0.5,0.6,1,0.9,1.7c0.2,0.7,0.3,1.4,0.3,2.2c0,2.3-0.8,4.1-2.4,5.4
	c-1.6,1.3-3.7,2-6.5,2c-0.7,0-1.3-0.1-1.9-0.2c-1,0.6-1.5,1.4-1.5,2.2c0,0.5,0.2,0.9,0.7,1.1c0.5,0.2,1.3,0.4,2.6,0.4h3.9
	c2.4,0,4.3,0.5,5.6,1.6c1.3,1,1.9,2.5,1.9,4.5c0,2.5-1,4.4-3.1,5.8c-2.1,1.4-5,2-8.9,2c-3,0-5.3-0.5-6.9-1.6s-2.4-2.6-2.4-4.6
	c0-1.4,0.4-2.5,1.3-3.4s2.1-1.6,3.6-1.9c-0.6-0.3-1.1-0.7-1.5-1.3s-0.6-1.2-0.6-1.9c0-0.8,0.2-1.5,0.7-2.1s1.2-1.1,2.1-1.7
	c-1.1-0.5-2.1-1.3-2.8-2.4c-0.7-1.1-1.1-2.4-1.1-3.9c0-2.4,0.8-4.3,2.3-5.6s3.7-2,6.5-2c0.6,0,1.3,0,2,0.1s1.2,0.2,1.6,0.3
	L336.5,132L336.5,132z M319.1,157.5c0,1,0.5,1.8,1.4,2.3c0.9,0.6,2.2,0.8,3.8,0.8c2.6,0,4.5-0.4,5.7-1.1c1.3-0.7,1.9-1.7,1.9-2.9
	c0-1-0.3-1.6-1-2s-2-0.6-3.8-0.6h-3.6c-1.3,0-2.4,0.3-3.2,0.9C319.5,155.6,319.1,156.4,319.1,157.5 M321.1,139.2
	c0,1.4,0.4,2.4,1.1,3.2c0.7,0.7,1.7,1.1,3.1,1.1c2.7,0,4.1-1.5,4.1-4.4c0-1.4-0.3-2.5-1-3.3s-1.7-1.2-3.1-1.2s-2.4,0.4-3.1,1.2
	S321.1,137.7,321.1,139.2 M337.2,132h5.1l4.5,12.5c0.7,1.8,1.1,3.5,1.4,5h0.2c0.1-0.7,0.3-1.6,0.7-2.7c0.3-1,2-6,5.1-14.9h5.1
	l-9.4,25c-1.7,4.6-4.6,6.9-8.6,6.9c-1,0-2-0.1-3-0.3v-3.7c0.7,0.2,1.5,0.2,2.4,0.2c2.3,0,3.9-1.3,4.8-3.9l0.8-2.1L337.2,132z
	 M386,128.6c-2.7,0-4.9,1-6.5,2.9s-2.4,4.6-2.4,8c0,3.6,0.8,6.3,2.3,8.1s3.7,2.8,6.6,2.8c1.2,0,2.4-0.1,3.6-0.4
	c1.2-0.2,2.4-0.6,3.6-0.9v4.1c-2.3,0.9-4.9,1.3-7.8,1.3c-4.3,0-7.6-1.3-9.8-3.9c-2.3-2.6-3.4-6.3-3.4-11.1c0-3,0.6-5.7,1.7-8
	s2.7-4,4.8-5.2c2.1-1.2,4.6-1.8,7.4-1.8c3,0,5.7,0.6,8.3,1.9l-1.7,4c-1-0.5-2-0.9-3.1-1.2C388.4,128.7,387.2,128.6,386,128.6
	 M418.6,143c0,3.6-0.9,6.4-2.8,8.5c-1.8,2-4.4,3-7.7,3c-2.1,0-3.9-0.5-5.5-1.4s-2.8-2.3-3.7-4c-0.9-1.7-1.3-3.8-1.3-6.1
	c0-3.6,0.9-6.4,2.8-8.4c1.8-2,4.4-3,7.8-3c3.2,0,5.7,1,7.6,3.1C417.7,136.7,418.6,139.5,418.6,143 M402.6,143c0,5.1,1.9,7.7,5.7,7.7
	c3.7,0,5.6-2.6,5.6-7.7c0-5-1.9-7.6-5.6-7.6c-2,0-3.4,0.7-4.3,2C403,138.7,402.6,140.6,402.6,143 M442.6,154.1h-4.7v-13.6
	c0-1.7-0.3-3-1-3.8c-0.6-0.8-1.6-1.3-3-1.3c-1.8,0-3.1,0.6-4,1.8c-0.8,1.2-1.3,3.1-1.3,5.9v11H424V132h3.7l0.7,2.9h0.2
	c0.6-1,1.5-1.9,2.7-2.4c1.2-0.6,2.4-0.9,3.9-0.9c3.4,0,5.6,1.2,6.7,3.5h0.3c0.7-1.1,1.6-1.9,2.8-2.6c1.2-0.6,2.5-0.9,4.1-0.9
	c2.6,0,4.6,0.7,5.8,2c1.2,1.3,1.8,3.4,1.8,6.1v14.4H452v-13.6c0-1.7-0.3-3-1-3.8c-0.6-0.8-1.6-1.3-3-1.3c-1.8,0-3.2,0.6-4,1.7
	c-0.8,1.1-1.3,2.9-1.3,5.2v11.8H442.6z M474.3,154.5c-2.8,0-5-1-6.5-3h-0.3c0.2,1.9,0.3,3,0.3,3.4v9h-4.7V132h3.8
	c0.1,0.4,0.3,1.4,0.7,3h0.2c1.5-2.2,3.7-3.4,6.6-3.4c2.8,0,4.9,1,6.4,3s2.3,4.8,2.3,8.4c0,3.6-0.8,6.4-2.3,8.5
	C479.2,153.5,477.1,154.5,474.3,154.5 M473.2,135.4c-1.9,0-3.2,0.6-4.1,1.6c-0.9,1.1-1.3,2.8-1.3,5.2v0.7c0,2.7,0.4,4.6,1.3,5.8
	s2.2,1.8,4.2,1.8c1.6,0,2.9-0.7,3.8-2s1.3-3.2,1.3-5.7s-0.4-4.3-1.3-5.6S474.9,135.4,473.2,135.4 M502.4,154.1l-0.9-3.1h-0.2
	c-1.1,1.4-2.1,2.3-3.2,2.7c-1.1,0.5-2.5,0.7-4.1,0.7c-2.2,0-3.9-0.6-5.1-1.8s-1.8-2.8-1.8-5c0-2.3,0.8-4,2.5-5.2s4.3-1.8,7.7-1.9
	l3.8-0.1v-1.2c0-1.4-0.3-2.5-1-3.2s-1.7-1-3.1-1c-1.1,0-2.2,0.2-3.3,0.5c-1,0.3-2,0.7-3,1.2l-1.5-3.4c1.2-0.6,2.5-1.1,3.9-1.4
	c1.4-0.3,2.8-0.5,4-0.5c2.8,0,4.9,0.6,6.4,1.8c1.4,1.2,2.1,3.1,2.1,5.8v14.9h-3.2V154.1z M495.4,150.9c1.7,0,3.1-0.5,4.1-1.4
	c1-1,1.6-2.3,1.6-4v-1.9l-2.8,0.1c-2.2,0.1-3.8,0.5-4.8,1.1c-1,0.7-1.5,1.7-1.5,3c0,1,0.3,1.7,0.9,2.3
	C493.4,150.6,494.3,150.9,495.4,150.9 M531.8,154.1h-4.7v-13.6c0-1.7-0.3-3-1-3.8s-1.8-1.3-3.3-1.3c-2,0-3.4,0.6-4.4,1.8
	c-0.9,1.2-1.4,3.1-1.4,5.9v11h-4.7V132h3.7l0.7,2.9h0.2c0.7-1,1.6-1.9,2.8-2.4c1.2-0.6,2.6-0.9,4.1-0.9c5.3,0,7.9,2.7,7.9,8.1v14.4
	H531.8z M535,132h5.1l4.5,12.5c0.7,1.8,1.1,3.5,1.4,5h0.2c0.1-0.7,0.3-1.6,0.7-2.7c0.3-1,2-6,5.1-14.9h5.1l-9.4,25
	c-1.7,4.6-4.6,6.9-8.6,6.9c-1,0-2-0.1-3-0.3v-3.7c0.7,0.2,1.5,0.2,2.4,0.2c2.3,0,3.9-1.3,4.8-3.9l0.8-2.1L535,132z"/>
<g>
	<path class="st1" d="M380.2,96.5c-5.2,0-9.3-1.6-12.2-4.9c-2.9-3.3-4.4-7.8-4.4-13.7c0-6,1.5-10.7,4.6-14.1s7.2-5,12.5-5
		c3.1,0,6.2,0.5,9,1.6l-0.9,2.9c-3.1-1-5.9-1.6-8.2-1.6c-4.5,0-7.8,1.4-10.1,4.1c-2.3,2.8-3.4,6.7-3.4,11.9c0,4.9,1.1,8.7,3.4,11.5
		s5.5,4.2,9.6,4.2c3.3,0,6.4-0.6,9.2-1.8v3.1C387.1,95.9,384,96.5,380.2,96.5z"/>
	<path class="st1" d="M420.3,95.8l-0.8-5.8h-0.3c-1.8,2.3-3.7,4-5.6,5s-4.2,1.5-6.8,1.5c-3.6,0-6.3-0.9-8.3-2.7c-2-1.8-3-4.4-3-7.6
		c0-3.5,1.5-6.3,4.4-8.3c3-2,7.2-3,12.8-3.1l6.9-0.2v-2.4c0-3.5-0.7-6.1-2.1-7.8c-1.4-1.8-3.7-2.6-6.8-2.6c-3.4,0-6.9,0.9-10.5,2.8
		l-1.2-2.9c4-1.9,7.9-2.8,11.8-2.8c4,0,7,1,8.9,3.1c2,2.1,3,5.3,3,9.7v24.2h-2.4V95.8z M407,93.5c3.9,0,6.9-1.1,9.2-3.3
		c2.2-2.2,3.4-5.3,3.4-9.2v-3.6l-6.4,0.3c-5.1,0.2-8.7,1-10.9,2.4c-2.2,1.3-3.3,3.4-3.3,6.3c0,2.3,0.7,4,2.1,5.3
		C402.5,92.8,404.4,93.5,407,93.5z"/>
	<path class="st1" d="M448.8,58.8c1.5,0,3.2,0.2,4.9,0.5l-0.6,3.2c-1.5-0.4-3.1-0.6-4.7-0.6c-3.1,0-5.6,1.3-7.6,3.9c-2,2.6-3,6-3,10
		v20.1h-3.3V59.5h2.8l0.3,6.6h0.2c1.5-2.7,3.1-4.6,4.8-5.6S446.4,58.8,448.8,58.8z"/>
	<path class="st1" d="M475.9,96.5c-5.3,0-9.4-1.6-12.4-4.9s-4.4-7.8-4.4-13.7c0-5.8,1.4-10.4,4.3-13.9s6.7-5.2,11.5-5.2
		c4.3,0,7.7,1.5,10.1,4.5c2.5,3,3.7,7,3.7,12.2v2.7h-26.2c0,5,1.2,8.8,3.5,11.4s5.6,3.9,9.8,3.9c2.1,0,3.9-0.1,5.5-0.4
		s3.6-0.9,6-1.9v3c-2.1,0.9-3.9,1.5-5.7,1.8C479.9,96.3,478,96.5,475.9,96.5z M474.9,61.7c-3.5,0-6.3,1.2-8.4,3.5s-3.4,5.6-3.7,10
		h22.5c0-4.2-0.9-7.5-2.7-9.9C480.7,62.9,478.1,61.7,474.9,61.7z"/>
	<path class="st1" d="M513.4,96.5c-5.3,0-9.4-1.6-12.4-4.9s-4.4-7.8-4.4-13.7c0-5.8,1.4-10.4,4.3-13.9s6.7-5.2,11.5-5.2
		c4.3,0,7.7,1.5,10.1,4.5c2.5,3,3.7,7,3.7,12.2v2.7H500c0,5,1.2,8.8,3.5,11.4s5.6,3.9,9.8,3.9c2.1,0,3.9-0.1,5.5-0.4s3.6-0.9,6-1.9
		v3c-2.1,0.9-3.9,1.5-5.7,1.8C517.5,96.3,515.5,96.5,513.4,96.5z M512.5,61.7c-3.5,0-6.3,1.2-8.4,3.5s-3.4,5.6-3.7,10h22.5
		c0-4.2-0.9-7.5-2.7-9.9C518.2,62.9,515.7,61.7,512.5,61.7z"/>
	<path class="st1" d="M550.6,58.8c1.5,0,3.2,0.2,4.9,0.5l-0.6,3.2c-1.5-0.4-3.1-0.6-4.7-0.6c-3.1,0-5.6,1.3-7.6,3.9c-2,2.6-3,6-3,10
		v20.1h-3.3V59.5h2.8l0.3,6.6h0.2c1.5-2.7,3.1-4.6,4.8-5.6S548.2,58.8,550.6,58.8z"/>
</g>
</svg>
