<?xml version="1.0" encoding="UTF-8" standalone="no"?>
<svg
   xmlns:dc="http://purl.org/dc/elements/1.1/"
   xmlns:cc="http://creativecommons.org/ns#"
   xmlns:rdf="http://www.w3.org/1999/02/22-rdf-syntax-ns#"
   xmlns:svg="http://www.w3.org/2000/svg"
   xmlns="http://www.w3.org/2000/svg"
   viewBox="0 0 752.28003 126.69333"
   height="126.69333"
   width="752.28003"
   xml:space="preserve"
   id="svg2"
   version="1.1"><metadata
     id="metadata8"><rdf:RDF><cc:Work
         rdf:about=""><dc:format>image/svg+xml</dc:format><dc:type
           rdf:resource="http://purl.org/dc/dcmitype/StillImage" /></cc:Work></rdf:RDF></metadata><defs
     id="defs6" /><g
     transform="matrix(1.3333333,0,0,-1.3333333,0,126.69333)"
     id="g10"><g
       transform="scale(0.1)"
       id="g12"><path
         id="path14"
         style="fill:#f2561e;fill-opacity:1;fill-rule:nonzero;stroke:none"
         d="m 504.434,836.316 c 0,-62.882 -50.778,-113.847 -113.375,-113.847 -62.618,0 -113.36,50.965 -113.36,113.847 0,62.875 50.742,113.844 113.36,113.844 62.597,0 113.375,-50.969 113.375,-113.844" /><path
         id="path16"
         style="fill:#f2561e;fill-opacity:1;fill-rule:nonzero;stroke:none"
         d="m 226.754,371.055 c 0,-62.879 -50.762,-113.852 -113.379,-113.852 C 50.7617,257.203 0,308.176 0,371.055 c 0,62.875 50.7617,113.843 113.375,113.843 62.617,0 113.379,-50.968 113.379,-113.843" /><path
         id="path18"
         style="fill:#f2561e;fill-opacity:1;fill-rule:nonzero;stroke:none"
         d="m 782.117,371.055 c 0,-62.879 -50.762,-113.852 -113.379,-113.852 -62.593,0 -113.355,50.973 -113.355,113.852 0,62.875 50.762,113.843 113.355,113.843 62.617,0 113.379,-50.968 113.379,-113.843" /><path
         id="path20"
         style="fill:#46505b;fill-opacity:1;fill-rule:nonzero;stroke:none"
         d="m 1123.54,549.379 h 86.97 c 62.39,0 86.25,37.094 86.25,75.023 0,39.254 -25.94,73.571 -75.72,73.571 h -97.5 z m 63.81,-86.281 h -63.81 V 268.863 h -95.35 v 518.164 h 192.85 c 118.48,0 173.88,-77.8 173.88,-161.925 0,-63.153 -32.96,-126.227 -108.68,-150.817 l 130.43,-205.422 h -113.62 l -115.7,194.235" /><path
         id="path22"
         style="fill:#46505b;fill-opacity:1;fill-rule:nonzero;stroke:none"
         d="m 1636.89,787.027 h 344.29 v -89.75 H 1732.96 V 575.293 h 229.29 V 486.234 H 1732.96 V 358.617 h 248.22 v -89.754 h -344.29 v 518.164" /><path
         id="path24"
         style="fill:#46505b;fill-opacity:1;fill-rule:nonzero;stroke:none"
         d="m 2336.02,472.895 h 128.31 l -63.81,177.421 z m 155.65,-86.211 H 2307.96 L 2265.2,268.863 h -101.67 l 200.52,518.164 h 73.64 l 198.44,-518.164 h -101.67 l -42.79,117.821" /><path
         id="path26"
         style="fill:#46505b;fill-opacity:1;fill-rule:nonzero;stroke:none"
         d="m 2836.6,787.027 h 96.07 V 360.699 h 266.45 V 268.863 H 2836.6 v 518.164" /><path
         id="path28"
         style="fill:#46505b;fill-opacity:1;fill-rule:nonzero;stroke:none"
         d="m 3671.22,621.504 c 0,41.332 -27.37,78.5 -79.23,78.5 H 3498 V 541.543 h 86.98 c 60.3,0 86.24,40.711 86.24,79.961 z m 97.47,-1.395 c 0,-86.277 -54.71,-166.234 -186.53,-166.234 H 3498 V 270.891 h -95.35 v 518.168 h 187.22 c 126.92,0 178.82,-84.125 178.82,-168.95" /><path
         id="path30"
         style="fill:#46505b;fill-opacity:1;fill-rule:nonzero;stroke:none"
         d="m 4043.62,474.926 h 128.31 l -63.81,177.422 z m 155.64,-86.211 H 4015.55 L 3972.8,270.891 h -101.71 l 200.56,518.168 h 73.64 l 198.44,-518.168 h -101.67 l -42.8,117.824" /><path
         id="path32"
         style="fill:#46505b;fill-opacity:1;fill-rule:nonzero;stroke:none"
         d="m 4459.86,529.668 c 0,157.762 121.98,268.492 273.47,268.492 86.93,0 165.46,-37.097 210.35,-86.906 l -63.81,-67.316 c -37.17,37.863 -89.06,61.691 -146.54,61.691 -100.29,0 -175.31,-74.332 -175.31,-175.27 0,-98.925 72.9,-175.343 173.88,-175.343 56.83,0 111.49,25.289 145.16,59.605 v 78.57 H 4727 v 84.125 h 238.42 V 367.664 c -63.81,-67.312 -145.85,-104.48 -236.3,-104.48 -156.37,0 -269.26,112.882 -269.26,266.484" /><path
         id="path34"
         style="fill:#46505b;fill-opacity:1;fill-rule:nonzero;stroke:none"
         d="m 5169.82,789.059 h 344.29 V 699.305 H 5265.89 V 577.316 h 229.29 V 488.262 H 5265.89 V 360.648 h 248.22 v -89.757 h -344.29 v 518.168" /><path
         id="path36"
         style="fill:#46505b;fill-opacity:1;fill-rule:nonzero;stroke:none"
         d="m 5595.11,747.23 h 4.39 c 5.11,0 9.25,1.708 9.25,5.844 0,3.656 -2.68,6.082 -8.52,6.082 -2.44,0 -4.15,-0.23 -5.12,-0.48 z m -0.23,-22.41 h -9.27 v 39.946 c 3.66,0.492 8.77,1.218 15.35,1.218 7.55,0 10.96,-1.218 13.63,-3.164 2.45,-1.703 4.16,-4.632 4.16,-8.531 0,-4.867 -3.67,-8.031 -8.29,-9.496 v -0.488 c 3.89,-1.219 5.84,-4.379 7.06,-9.739 1.23,-6.086 2.19,-8.281 2.92,-9.746 h -9.74 c -1.22,1.465 -1.95,4.871 -3.17,9.746 -0.73,4.137 -3.17,6.09 -8.28,6.09 h -4.37 z m 6.08,52.614 c -17.29,0 -30.69,-14.375 -30.69,-31.911 0,-17.777 13.4,-31.906 31.18,-31.906 17.3,-0.238 30.44,14.129 30.44,31.66 0,17.782 -13.14,32.157 -30.69,32.157 z m 0.49,8.035 c 22.65,0 40.67,-17.531 40.67,-39.946 0,-22.41 -18.02,-40.187 -40.92,-40.187 -22.89,0 -41.17,17.777 -41.17,40.187 0,22.415 18.28,39.946 41.17,39.946 h 0.25" /><path
         id="path38"
         style="fill:#69727d;fill-opacity:1;fill-rule:nonzero;stroke:none"
         d="m 3926.04,0.167969 c -37.16,0 -65.36,28.722631 -65.36,65.011731 0,36.9803 29.41,66.4063 65.88,66.4063 36.63,0 66.04,-29.426 66.04,-65.879 0,-36.3007 -29.06,-65.539031 -66.56,-65.539031 m 0.52,111.797031 c -25.11,0 -45.24,-19.9494 -45.24,-46.4337 0,-25.9766 19.61,-45.9297 45.24,-45.9297 25.28,0 45.41,19.6093 45.41,45.9297 0,26.8242 -20.31,46.4337 -45.41,46.4337" /><path
         id="path40"
         style="fill:#69727d;fill-opacity:1;fill-rule:nonzero;stroke:none"
         d="m 4112.68,0.00390625 c -26.84,0 -47.13,16.16019375 -47.13,46.25779375 V 129.34 h 19.78 V 48.8398 c 0,-19.4335 10.32,-29.414 27.35,-29.414 16.86,0 27.17,10.6758 27.17,29.414 V 129.34 h 19.96 V 46.2617 c 0,-30.0976 -20.13,-46.25779375 -47.13,-46.25779375" /><path
         id="path42"
         style="fill:#69727d;fill-opacity:1;fill-rule:nonzero;stroke:none"
         d="m 4285.06,2.23047 h -20.12 V 110.082 h -37.16 v 19.258 h 94.43 v -19.258 h -37.15 V 2.23047" /><path
         id="path44"
         style="fill:#69727d;fill-opacity:1;fill-rule:nonzero;stroke:none"
         d="m 4411.36,2.23047 h -19.77 V 129.34 h 43.85 c 29.76,0 42.31,-20.129 42.31,-40.2462 0,-20.3008 -13.41,-39.7266 -44.02,-39.7266 h -22.37 V 2.23047 m 0,108.53553 V 67.5898 h 22.88 c 16.52,0 23.39,11.1836 23.39,21.8477 0,11.0035 -7.05,21.3285 -21.33,21.3285 h -24.94" /><path
         id="path46"
         style="fill:#69727d;fill-opacity:1;fill-rule:nonzero;stroke:none"
         d="m 4630.73,2.23047 h -81.37 V 129.34 h 81.19 v -18.742 h -61.41 V 76.0195 h 56.94 v -18.75 h -56.94 v -36.289 h 61.59 V 2.23047" /><path
         id="path48"
         style="fill:#69727d;fill-opacity:1;fill-rule:nonzero;stroke:none"
         d="m 4798.65,2.23047 h -23.91 l -30.97,49.88283 h -16.85 V 2.23047 h -19.78 V 129.34 h 44.9 c 27.86,0 41.1,-19.094 41.1,-38.7033 0,-15.6523 -9.11,-31.3086 -28.38,-36.6406 L 4798.65,2.23047 M 4726.92,110.598 V 70.5117 h 22.01 c 17.38,0 23.75,10.1563 23.75,20.3008 0,10.4885 -6.89,19.7855 -20.64,19.7855 h -25.12" /><path
         id="path50"
         style="fill:#69727d;fill-opacity:1;fill-rule:nonzero;stroke:none"
         d="m 4890.53,2.23047 h -19.77 V 129.34 h 79.98 v -19.094 h -60.21 V 75.5 H 4943 V 56.5859 h -52.47 V 2.23047" /><path
         id="path52"
         style="fill:#69727d;fill-opacity:1;fill-rule:nonzero;stroke:none"
         d="m 5077.73,0.167969 c -37.15,0 -65.36,28.722631 -65.36,65.011731 0,36.9803 29.42,66.4063 65.88,66.4063 36.64,0 66.04,-29.426 66.04,-65.879 0,-36.3007 -29.06,-65.539031 -66.56,-65.539031 m 0.52,111.797031 c -25.11,0 -45.24,-19.9494 -45.24,-46.4337 0,-25.9766 19.61,-45.9297 45.24,-45.9297 25.29,0 45.42,19.6093 45.42,45.9297 0,26.8242 -20.31,46.4337 -45.42,46.4337" /><path
         id="path54"
         style="fill:#69727d;fill-opacity:1;fill-rule:nonzero;stroke:none"
         d="m 5310.12,2.23047 h -23.9 l -30.97,49.88283 h -16.86 V 2.23047 h -19.77 V 129.34 h 44.89 c 27.86,0 41.1,-19.094 41.1,-38.7033 0,-15.6523 -9.11,-31.3086 -28.37,-36.6406 L 5310.12,2.23047 M 5238.39,110.598 V 70.5117 h 22.03 c 17.37,0 23.74,10.1563 23.74,20.3008 0,10.4885 -6.89,19.7855 -20.65,19.7855 h -25.12" /><path
         id="path56"
         style="fill:#69727d;fill-opacity:1;fill-rule:nonzero;stroke:none"
         d="M 5510.55,2.23047 H 5490.6 V 83.5859 l -41.46,-60.5351 h -5.84 l -41.46,60.5351 V 2.23047 h -19.6 V 129.34 h 10.83 l 53.32,-77.9103 52.98,77.9103 h 11.18 V 2.23047" /></g></g></svg>